<svg width="86" height="86" viewBox="0 0 86 86" fill="none" xmlns="http://www.w3.org/2000/svg">
<path d="M1 46.4167C1 31.8333 6.83333 26 21.4167 26H38.9167C53.5 26 59.3333 31.8333 59.3333 46.4167V63.9167C59.3333 78.5 53.5 84.3333 38.9167 84.3333H21.4167C6.83333 84.3333 1 78.5 1 63.9167" fill="#0B021E"/>
<path d="M1 46.4167C1 31.8333 6.83333 26 21.4167 26H38.9167C53.5 26 59.3333 31.8333 59.3333 46.4167V63.9167C59.3333 78.5 53.5 84.3333 38.9167 84.3333H21.4167C6.83333 84.3333 1 78.5 1 63.9167" stroke="black" stroke-width="1.5" stroke-linecap="round" stroke-linejoin="round"/>
<path d="M84.3333 38.9167C84.3333 53.5 78.5 59.3333 63.9167 59.3333H59.3333V46.4167C59.3333 31.8333 53.5 26 38.9167 26H26V21.4167C26 6.83333 31.8333 1 46.4167 1H63.9167C78.5 1 84.3333 6.83333 84.3333 21.4167" fill="#1A31A6"/>
<path d="M84.3333 38.9167C84.3333 53.5 78.5 59.3333 63.9167 59.3333H59.3333V46.4167C59.3333 31.8333 53.5 26 38.9167 26H26V21.4167C26 6.83333 31.8333 1 46.4167 1H63.9167C78.5 1 84.3333 6.83333 84.3333 21.4167" stroke="#230087" stroke-width="1.5" stroke-linecap="round" stroke-linejoin="round"/>
<g clip-path="url(#clip0_853_53)">
<g clip-path="url(#clip1_853_53)">
<path d="M56.6667 15.6667C57.1972 15.6667 57.7059 15.456 58.081 15.0809C58.456 14.7058 58.6667 14.1971 58.6667 13.6667C58.6667 13.1363 58.456 12.6275 58.081 12.2525C57.7059 11.8774 57.1972 11.6667 56.6667 11.6667C56.1363 11.6667 55.6276 11.8774 55.2525 12.2525C54.8775 12.6275 54.6667 13.1363 54.6667 13.6667C54.6667 14.1971 54.8775 14.7058 55.2525 15.0809C55.6276 15.456 56.1363 15.6667 56.6667 15.6667Z" stroke="white" stroke-width="1.5" stroke-linecap="round" stroke-linejoin="round"/>
<path d="M59.6667 7.66669H56.6667C51.6667 7.66669 49.6667 9.66669 49.6667 14.6667V20.6667C49.6667 25.6667 51.6667 27.6667 56.6667 27.6667H62.6667C67.6667 27.6667 69.6667 25.6667 69.6667 20.6667V16.6667" stroke="white" stroke-width="1.5" stroke-linecap="round" stroke-linejoin="round"/>
<path d="M50.3368 24.6167L55.2668 21.3067C56.0568 20.7767 57.1968 20.8367 57.9068 21.4467L58.2368 21.7367C59.0168 22.4067 60.2768 22.4067 61.0568 21.7367L65.2168 18.1667C65.9968 17.4967 67.2568 17.4967 68.0368 18.1667L69.6668 19.5667M63.7868 10.7767C63.4568 9.73671 63.8468 8.44671 64.9268 8.09671C65.4968 7.91671 66.2068 8.06671 66.6068 8.61671C66.9868 8.04671 67.7168 7.90671 68.2868 8.09671C69.3768 8.44671 69.7668 9.73671 69.4368 10.7767C68.9168 12.4167 67.1168 13.2767 66.6168 13.2767C66.1068 13.2767 64.3168 12.4367 63.7868 10.7767V10.7767Z" stroke="white" stroke-width="1.5" stroke-linecap="round" stroke-linejoin="round"/>
</g>
</g>
<path d="M26.6667 52.6667C27.1972 52.6667 27.7059 52.456 28.081 52.0809C28.456 51.7058 28.6667 51.1971 28.6667 50.6667C28.6667 50.1363 28.456 49.6275 28.081 49.2525C27.7059 48.8774 27.1972 48.6667 26.6667 48.6667C26.1363 48.6667 25.6276 48.8774 25.2525 49.2525C24.8775 49.6275 24.6667 50.1363 24.6667 50.6667C24.6667 51.1971 24.8775 51.7058 25.2525 52.0809C25.6276 52.456 26.1363 52.6667 26.6667 52.6667Z" stroke="white" stroke-width="1.5" stroke-linecap="round" stroke-linejoin="round"/>
<path d="M30.6667 44.6667H26.6667C21.6667 44.6667 19.6667 46.6667 19.6667 51.6667V57.6667C19.6667 62.6667 21.6667 64.6667 26.6667 64.6667H32.6667C37.6667 64.6667 39.6667 62.6667 39.6667 57.6667V52.6667" stroke="white" stroke-width="1.5" stroke-linecap="round" stroke-linejoin="round"/>
<path d="M36.8066 45.2567L33.1766 48.8867C33.0366 49.0267 32.8966 49.2967 32.8766 49.4967L32.6766 50.8867C32.6066 51.3867 32.9566 51.7367 33.4566 51.6667L34.8466 51.4667C35.0366 51.4367 35.3166 51.3067 35.4566 51.1667L39.0866 47.5367C39.7166 46.9067 40.0066 46.1867 39.0866 45.2667C38.1566 44.3267 37.4366 44.6267 36.8066 45.2567V45.2567Z" stroke="white" stroke-width="1.5" stroke-miterlimit="10" stroke-linecap="round" stroke-linejoin="round"/>
<path d="M36.2867 45.7767C36.5967 46.8767 37.4567 47.7367 38.5567 48.0467" stroke="white" stroke-width="1.5" stroke-miterlimit="10" stroke-linecap="round" stroke-linejoin="round"/>
<path d="M20.3367 61.6167L25.2667 58.3067C26.0567 57.7767 27.1967 57.8367 27.9067 58.4467L28.2367 58.7367C29.0167 59.4067 30.2767 59.4067 31.0567 58.7367L35.2167 55.1667C35.9967 54.4967 37.2567 54.4967 38.0367 55.1667L39.6667 56.5667" stroke="white" stroke-width="1.5" stroke-linecap="round" stroke-linejoin="round"/>
<defs>
<clipPath id="clip0_853_53">
<rect width="24" height="24" fill="white" transform="translate(47.6667 5.66669)"/>
</clipPath>
<clipPath id="clip1_853_53">
<rect width="24" height="24" fill="white" transform="translate(47.6667 5.66669)"/>
</clipPath>
</defs>
</svg>
