<svg width="355" height="47" viewBox="0 0 355 47" fill="none" xmlns="http://www.w3.org/2000/svg">
<path d="M0.112 23.472C0.112 19.0347 1.072 15.088 2.992 11.632C4.912 8.13333 7.57867 5.424 10.992 3.504C14.448 1.54133 18.352 0.559998 22.704 0.559998C28.0373 0.559998 32.6027 1.968 36.4 4.784C40.1973 7.6 42.736 11.44 44.016 16.304H31.984C31.088 14.4267 29.808 12.9973 28.144 12.016C26.5227 11.0347 24.6667 10.544 22.576 10.544C19.2053 10.544 16.4747 11.7173 14.384 14.064C12.2933 16.4107 11.248 19.5467 11.248 23.472C11.248 27.3973 12.2933 30.5333 14.384 32.88C16.4747 35.2267 19.2053 36.4 22.576 36.4C24.6667 36.4 26.5227 35.9093 28.144 34.928C29.808 33.9467 31.088 32.5173 31.984 30.64H44.016C42.736 35.504 40.1973 39.344 36.4 42.16C32.6027 44.9333 28.0373 46.32 22.704 46.32C18.352 46.32 14.448 45.36 10.992 43.44C7.57867 41.4773 4.912 38.768 2.992 35.312C1.072 31.856 0.112 27.9093 0.112 23.472ZM66.974 46.512C63.4753 46.512 60.318 45.7653 57.502 44.272C54.7287 42.7787 52.5313 40.6453 50.91 37.872C49.3313 35.0987 48.542 31.856 48.542 28.144C48.542 24.4747 49.3527 21.2533 50.974 18.48C52.5953 15.664 54.814 13.5093 57.63 12.016C60.446 10.5227 63.6033 9.776 67.102 9.776C70.6007 9.776 73.758 10.5227 76.574 12.016C79.39 13.5093 81.6087 15.664 83.23 18.48C84.8513 21.2533 85.662 24.4747 85.662 28.144C85.662 31.8133 84.83 35.056 83.166 37.872C81.5447 40.6453 79.3047 42.7787 76.446 44.272C73.63 45.7653 70.4727 46.512 66.974 46.512ZM66.974 37.04C69.0647 37.04 70.8353 36.272 72.286 34.736C73.7793 33.2 74.526 31.0027 74.526 28.144C74.526 25.2853 73.8007 23.088 72.35 21.552C70.942 20.016 69.1927 19.248 67.102 19.248C64.9687 19.248 63.198 20.016 61.79 21.552C60.382 23.0453 59.678 25.2427 59.678 28.144C59.678 31.0027 60.3607 33.2 61.726 34.736C63.134 36.272 64.8833 37.04 66.974 37.04ZM113.228 9.904C117.409 9.904 120.737 11.2693 123.212 14C125.729 16.688 126.988 20.4 126.988 25.136V46H116.108V26.608C116.108 24.2187 115.489 22.3627 114.252 21.04C113.015 19.7173 111.351 19.056 109.26 19.056C107.169 19.056 105.505 19.7173 104.268 21.04C103.031 22.3627 102.412 24.2187 102.412 26.608V46H91.468V10.288H102.412V15.024C103.521 13.4453 105.015 12.208 106.892 11.312C108.769 10.3733 110.881 9.904 113.228 9.904ZM150.657 35.76L158.401 10.288H170.049L157.377 46H143.873L131.201 10.288H142.913L150.657 35.76ZM208.319 27.568C208.319 28.592 208.256 29.6587 208.128 30.768H183.36C183.53 32.9867 184.234 34.6933 185.472 35.888C186.752 37.04 188.309 37.616 190.144 37.616C192.874 37.616 194.773 36.464 195.84 34.16H207.488C206.89 36.5067 205.802 38.6187 204.224 40.496C202.688 42.3733 200.746 43.8453 198.4 44.912C196.053 45.9787 193.429 46.512 190.528 46.512C187.029 46.512 183.914 45.7653 181.184 44.272C178.453 42.7787 176.32 40.6453 174.784 37.872C173.248 35.0987 172.48 31.856 172.48 28.144C172.48 24.432 173.226 21.1893 174.72 18.416C176.256 15.6427 178.389 13.5093 181.12 12.016C183.85 10.5227 186.986 9.776 190.528 9.776C193.984 9.776 197.056 10.5013 199.744 11.952C202.432 13.4027 204.522 15.472 206.016 18.16C207.552 20.848 208.319 23.984 208.319 27.568ZM197.12 24.688C197.12 22.8107 196.48 21.3173 195.2 20.208C193.92 19.0987 192.32 18.544 190.4 18.544C188.565 18.544 187.008 19.0773 185.728 20.144C184.49 21.2107 183.722 22.7253 183.424 24.688H197.12ZM225.037 16.24C226.317 14.2773 227.917 12.7413 229.837 11.632C231.757 10.48 233.89 9.904 236.237 9.904V21.488H233.229C230.498 21.488 228.45 22.0853 227.085 23.28C225.72 24.432 225.037 26.48 225.037 29.424V46H214.093V10.288H225.037V16.24ZM273.788 1.072V9.84H261.884V46H250.94V9.84H239.036V1.072H273.788ZM295.537 46.512C292.038 46.512 288.881 45.7653 286.065 44.272C283.291 42.7787 281.094 40.6453 279.473 37.872C277.894 35.0987 277.105 31.856 277.105 28.144C277.105 24.4747 277.915 21.2533 279.536 18.48C281.158 15.664 283.377 13.5093 286.193 12.016C289.009 10.5227 292.166 9.776 295.665 9.776C299.163 9.776 302.321 10.5227 305.137 12.016C307.953 13.5093 310.171 15.664 311.793 18.48C313.414 21.2533 314.225 24.4747 314.225 28.144C314.225 31.8133 313.393 35.056 311.729 37.872C310.107 40.6453 307.867 42.7787 305.009 44.272C302.193 45.7653 299.035 46.512 295.537 46.512ZM295.537 37.04C297.627 37.04 299.398 36.272 300.849 34.736C302.342 33.2 303.089 31.0027 303.089 28.144C303.089 25.2853 302.363 23.088 300.913 21.552C299.505 20.016 297.755 19.248 295.665 19.248C293.531 19.248 291.761 20.016 290.353 21.552C288.945 23.0453 288.241 25.2427 288.241 28.144C288.241 31.0027 288.923 33.2 290.289 34.736C291.697 36.272 293.446 37.04 295.537 37.04ZM336.287 46.512C332.788 46.512 329.631 45.7653 326.815 44.272C324.041 42.7787 321.844 40.6453 320.223 37.872C318.644 35.0987 317.855 31.856 317.855 28.144C317.855 24.4747 318.665 21.2533 320.286 18.48C321.908 15.664 324.127 13.5093 326.943 12.016C329.759 10.5227 332.916 9.776 336.415 9.776C339.913 9.776 343.071 10.5227 345.887 12.016C348.703 13.5093 350.921 15.664 352.543 18.48C354.164 21.2533 354.975 24.4747 354.975 28.144C354.975 31.8133 354.143 35.056 352.479 37.872C350.857 40.6453 348.617 42.7787 345.759 44.272C342.943 45.7653 339.785 46.512 336.287 46.512ZM336.287 37.04C338.377 37.04 340.148 36.272 341.599 34.736C343.092 33.2 343.839 31.0027 343.839 28.144C343.839 25.2853 343.113 23.088 341.663 21.552C340.255 20.016 338.505 19.248 336.415 19.248C334.281 19.248 332.511 20.016 331.103 21.552C329.695 23.0453 328.991 25.2427 328.991 28.144C328.991 31.0027 329.673 33.2 331.039 34.736C332.447 36.272 334.196 37.04 336.287 37.04Z" fill="url(#paint0_linear_136_2382)"/>
<defs>
<linearGradient id="paint0_linear_136_2382" x1="260" y1="-36" x2="27" y2="107.5" gradientUnits="userSpaceOnUse">
<stop stop-color="#1041EE"/>
<stop offset="1" stop-color="#141415"/>
</linearGradient>
</defs>
</svg>
